<?xml version="1.0"?>
<svg xmlns="http://www.w3.org/2000/svg" xmlns:xlink="http://www.w3.org/1999/xlink" xmlns:svgjs="http://svgjs.com/svgjs" version="1.1" width="512" height="512" x="0" y="0" viewBox="0 0 509.869 509.869" style="enable-background:new 0 0 512 512" xml:space="preserve" class=""><g><g xmlns="http://www.w3.org/2000/svg"><g id="XMLID_424_"><g><path d="m383.575 213.69-24.793-1.645-97.378 40.349-6.469 39.586v156.4c1.33 0 2.64-.35 3.82-1.07l122.22-74.35c2.2-1.34 3.54-3.72 3.54-6.3v-149.36c0-1.28-.34-2.52-.94-3.61z" fill="#f47c7c" data-original="#f47c7c" style="" class=""/><path d="m248.783 263.563-108.336-55.386-15.552 6.363c-.35.87-.54 1.81-.54 2.78v149.33c0 2.58 1.35 4.97 3.56 6.31l123.2 74.36c1.18.71 2.5 1.07 3.82 1.06v-156.4z" fill="#ee6161" data-original="#ee6161" style="" class=""/><path d="m383.575 213.69-1.09.71-127.55 77.58-128.2-77.38-1.84-.06c.59-1.45 1.64-2.7 3.02-3.53l123.2-74.37c2.35-1.42 5.29-1.41 7.64.02l122.22 74.34c1.1.67 1.98 1.6 2.6 2.69z" fill="#f79595" data-original="#f79595" style="" class=""/></g></g><g fill="#01c0fa"><circle cx="478.483" cy="428.063" r="23.886" fill="#01c0fa" data-original="#01c0fa" style=""/><circle cx="31.386" cy="428.063" r="23.886" fill="#01c0fa" data-original="#01c0fa" style=""/><circle cx="254.935" cy="35.014" r="23.886" fill="#01c0fa" data-original="#01c0fa" style=""/></g><g><path d="m82.35 325.327c4.142 0 7.5-3.358 7.5-7.5v-51.687c0-4.142-3.358-7.5-7.5-7.5s-7.5 3.358-7.5 7.5v51.687c0 4.142 3.358 7.5 7.5 7.5z" fill="#ffffff" data-original="#000000" style="" class=""/><path d="m82.35 221.952c4.142 0 7.5-3.358 7.5-7.5v-20.767l17.779-10.732c3.546-2.141 4.686-6.75 2.545-10.297-2.14-3.545-6.75-4.686-10.297-2.545l-21.403 12.919c-2.249 1.358-3.624 3.793-3.624 6.421v25c0 4.143 3.358 7.501 7.5 7.501z" fill="#ffffff" data-original="#000000" style="" class=""/><path d="m147.048 157.904c1.319 0 2.656-.348 3.869-1.08l43.287-26.13c3.546-2.141 4.686-6.75 2.545-10.297-2.14-3.545-6.749-4.686-10.297-2.545l-43.287 26.13c-3.546 2.141-4.686 6.75-2.545 10.297 1.408 2.334 3.887 3.625 6.428 3.625z" fill="#ffffff" data-original="#000000" style="" class=""/><path d="m315.407 130.736 42.928 26.112c1.218.741 2.562 1.093 3.89 1.093 2.532 0 5.003-1.282 6.415-3.604 2.152-3.539 1.029-8.152-2.51-10.305l-42.928-26.112c-3.538-2.152-8.152-1.028-10.305 2.51-2.152 3.54-1.029 8.153 2.51 10.306z" fill="#ffffff" data-original="#000000" style="" class=""/><path d="m401.263 182.961 17.756 10.801v20.784c0 4.142 3.358 7.5 7.5 7.5s7.5-3.358 7.5-7.5v-25c0-2.618-1.365-5.047-3.603-6.408l-21.359-12.992c-3.539-2.152-8.152-1.028-10.305 2.51-2.152 3.539-1.028 8.153 2.511 10.305z" fill="#ffffff" data-original="#000000" style="" class=""/><path d="m426.519 258.67c-4.142 0-7.5 3.358-7.5 7.5v51.625c0 4.142 3.358 7.5 7.5 7.5s7.5-3.358 7.5-7.5v-51.625c0-4.142-3.358-7.5-7.5-7.5z" fill="#ffffff" data-original="#000000" style="" class=""/><path d="m358.335 427.117-42.928 26.112c-3.539 2.153-4.663 6.767-2.51 10.305 1.412 2.321 3.883 3.604 6.415 3.604 1.328 0 2.673-.353 3.89-1.093l42.928-26.112c3.539-2.153 4.663-6.767 2.51-10.305s-6.765-4.665-10.305-2.511z" fill="#ffffff" data-original="#000000" style="" class=""/><path d="m272.479 479.341-17.477 10.63-17.512-10.571c-3.547-2.142-8.157-1.001-10.297 2.545-2.141 3.546-1.001 8.156 2.545 10.297l21.403 12.919c1.192.72 2.534 1.079 3.876 1.079 1.35 0 2.701-.364 3.897-1.092l21.359-12.992c3.539-2.153 4.663-6.767 2.51-10.305-2.151-3.538-6.764-4.663-10.304-2.51z" fill="#ffffff" data-original="#000000" style="" class=""/><path d="m194.204 453.271-43.288-26.129c-3.549-2.142-8.157-1.001-10.297 2.545-2.141 3.546-1.001 8.156 2.545 10.297l43.288 26.129c1.213.732 2.549 1.08 3.869 1.08 2.541 0 5.02-1.292 6.428-3.625 2.14-3.546 1.001-8.156-2.545-10.297z" fill="#ffffff" data-original="#000000" style="" class=""/><path d="m254.935 200.71c4.142 0 7.5-3.358 7.5-7.5v-5.76c0-4.142-3.358-7.5-7.5-7.5s-7.5 3.358-7.5 7.5v5.76c0 4.142 3.357 7.5 7.5 7.5z" fill="#ffffff" data-original="#000000" style="" class=""/><path d="m254.935 243.718c4.142 0 7.5-3.358 7.5-7.5v-5.76c0-4.142-3.358-7.5-7.5-7.5s-7.5 3.358-7.5 7.5v5.76c0 4.142 3.357 7.5 7.5 7.5z" fill="#ffffff" data-original="#000000" style="" class=""/><path d="m478.483 396.676c-8.013 0-15.33 3.022-20.882 7.981l-23.582-13.474v-21.764c0-4.142-3.358-7.5-7.5-7.5s-7.5 3.358-7.5 7.5v13.193l-27.017-15.437c.006-.171.017-.342.017-.513v-149.36c0-5.157-2.737-10.025-7.144-12.707l-122.226-74.349c-.071-.043-.144-.079-.215-.121v-31.611l10.045 6.11c1.218.741 2.562 1.093 3.89 1.093 2.532 0 5.003-1.282 6.415-3.604 2.152-3.539 1.029-8.152-2.51-10.305l-17.84-10.852v-15.468c13.696-3.372 23.886-15.752 23.886-30.474 0-17.307-14.08-31.386-31.386-31.386s-31.386 14.08-31.386 31.386c0 14.722 10.19 27.102 23.886 30.474v15.553l-17.695 10.681c-3.546 2.141-4.686 6.75-2.545 10.297s6.75 4.687 10.297 2.545l9.943-6.002v31.547c-.066.039-.135.072-.201.112l-123.197 74.366c-4.433 2.676-7.187 7.555-7.187 12.733v46.165c0 4.142 3.358 7.5 7.5 7.5s7.5-3.358 7.5-7.5v-37.039l115.584 69.771v140.128l-114.098-68.873c-.064-.128-.122-.258-.195-.384-.359-.627-.798-1.178-1.292-1.658v-69.982c0-4.142-3.358-7.5-7.5-7.5s-7.5 3.358-7.5 7.5v71.199c0 .364.017.726.044 1.086l-27.042 15.451v-13.671c0-4.142-3.358-7.5-7.5-7.5s-7.5 3.358-7.5 7.5v22.241l-22.582 12.902c-5.552-4.959-12.87-7.981-20.882-7.981-17.306.001-31.386 14.081-31.386 31.388s14.08 31.386 31.386 31.386 31.386-14.08 31.386-31.386c0-3.866-.707-7.57-1.991-10.993l22.821-13.039 16.274 9.824c1.212.732 2.549 1.08 3.869 1.08 2.541 0 5.02-1.292 6.428-3.625 2.141-3.546 1.001-8.156-2.545-10.297l-9.115-5.502 26.84-15.336 121.879 73.569c.759.458 1.548.834 2.356 1.146 1.361 1.383 3.252 2.243 5.345 2.243 2.102 0 3.999-.867 5.361-2.26.807-.314 1.596-.693 2.353-1.154l48.277-29.366c3.539-2.153 4.663-6.767 2.51-10.305s-6.767-4.664-10.305-2.51l-40.696 24.755v-140.094l114.584-69.701v140.093l-46.286 28.155c-3.539 2.153-4.662 6.767-2.51 10.306 1.412 2.321 3.883 3.603 6.415 3.603 1.328 0 2.673-.353 3.891-1.093l45.49-27.671 26.789 15.307-9.545 5.806c-3.539 2.153-4.663 6.767-2.51 10.305 1.412 2.321 3.883 3.604 6.415 3.604 1.328 0 2.673-.353 3.89-1.093l16.634-10.118 23.397 13.368c-1.284 3.423-1.991 7.126-1.991 10.993 0 17.307 14.08 31.386 31.386 31.386s31.386-14.08 31.386-31.386-14.078-31.387-31.385-31.387zm-447.097 47.773c-9.035 0-16.386-7.351-16.386-16.386s7.351-16.386 16.386-16.386 16.386 7.351 16.386 16.386-7.351 16.386-16.386 16.386zm207.162-409.435c0-9.035 7.351-16.386 16.386-16.386s16.386 7.351 16.386 16.386-7.35 16.386-16.385 16.386-16.387-7.351-16.387-16.386zm8.887 112.607v7.892c0 4.142 3.358 7.5 7.5 7.5s7.5-3.358 7.5-7.5v-7.839l107.653 65.484-107.653 65.484v-8.784c0-4.142-3.358-7.5-7.5-7.5s-7.5 3.358-7.5 7.5v8.837l-108.571-65.538zm231.048 296.828c-9.035 0-16.386-7.351-16.386-16.386s7.351-16.386 16.386-16.386 16.386 7.351 16.386 16.386-7.351 16.386-16.386 16.386z" fill="#ffffff" data-original="#000000" style="" class=""/></g></g></g></svg>
