<svg xmlns="http://www.w3.org/2000/svg" width="375" viewBox="0 0 375 375" height="375" version="1.0"><defs><clipPath id="a"><path d="M 124.261719 93.152344 L 230 93.152344 L 230 165 L 124.261719 165 Z M 124.261719 93.152344"/></clipPath><clipPath id="b"><path d="M 132 109 L 251.011719 109 L 251.011719 218.402344 L 132 218.402344 Z M 132 109"/></clipPath></defs><g clip-path="url(#a)"><path fill="#0A2841" d="M 145.484375 132.777344 C 145.144531 129.746094 144.96875 126.660156 144.96875 123.539062 L 144.972656 122.585938 C 149.652344 120.570312 154.5 118.875 159.492188 117.53125 C 164.128906 116.28125 168.886719 115.335938 173.75 114.710938 C 177.863281 114.183594 182.050781 113.886719 186.296875 113.835938 L 187.636719 113.828125 C 192.34375 113.828125 196.976562 114.128906 201.523438 114.710938 C 205.46875 115.21875 209.34375 115.9375 213.144531 116.859375 L 229.804688 100.226562 C 228.75 99.863281 227.6875 99.507812 226.617188 99.167969 C 224.179688 98.394531 221.710938 97.691406 219.210938 97.0625 C 209.109375 94.511719 198.53125 93.160156 187.636719 93.160156 C 176.742188 93.160156 166.167969 94.515625 156.066406 97.0625 C 153.566406 97.691406 151.09375 98.394531 148.65625 99.167969 C 146.761719 99.773438 144.886719 100.414062 143.03125 101.101562 C 136.863281 103.382812 130.921875 106.117188 125.246094 109.273438 C 125.109375 110.25 124.988281 111.230469 124.878906 112.214844 C 124.46875 115.933594 124.261719 119.710938 124.261719 123.539062 C 124.261719 127.070312 124.4375 130.5625 124.789062 134.003906 C 125.863281 144.601562 128.550781 154.722656 132.601562 164.117188 L 148.699219 148.050781 C 147.160156 143.140625 146.074219 138.035156 145.480469 132.777344 Z M 145.484375 132.777344" fill-rule="evenodd"/></g><path fill="#4DC0E9" d="M 250.027344 109.273438 C 244.351562 106.117188 238.410156 103.382812 232.246094 101.101562 C 231.433594 100.800781 230.621094 100.511719 229.804688 100.226562 L 213.144531 116.859375 L 186.101562 143.847656 L 169.507812 127.285156 L 155.140625 141.625 L 154.867188 141.898438 L 155.398438 142.429688 L 186.101562 173.074219 L 213.09375 146.132812 L 230.117188 129.144531 Z M 250.027344 109.273438" fill-rule="evenodd"/><g clip-path="url(#b)"><path fill="#008FC5" d="M 230.117188 129.144531 C 230.03125 130.363281 229.925781 131.574219 229.789062 132.777344 C 226.75 159.851562 210.507812 182.941406 187.636719 195.488281 C 169.960938 185.792969 156.246094 169.800781 149.523438 150.539062 C 149.234375 149.710938 148.964844 148.882812 148.699219 148.050781 L 132.605469 164.117188 C 132.9375 164.886719 133.273438 165.648438 133.625 166.40625 C 140.457031 181.230469 150.722656 194.15625 163.40625 204.164062 C 170.742188 209.949219 178.882812 214.757812 187.636719 218.394531 C 196.390625 214.757812 204.53125 209.949219 211.863281 204.164062 C 233.132812 187.382812 247.605469 162.40625 250.484375 134.007812 C 250.832031 130.566406 251.011719 127.070312 251.011719 123.539062 C 251.011719 119.710938 250.800781 115.929688 250.394531 112.214844 C 250.285156 111.230469 250.164062 110.25 250.027344 109.273438 Z M 230.117188 129.144531" fill-rule="evenodd"/></g><g fill="#23242C"><g><g><path d="M 9.484375 0.3125 C 7.816406 0.3125 6.320312 -0.0351562 5 -0.734375 C 3.6875 -1.429688 2.648438 -2.40625 1.890625 -3.65625 C 1.140625 -4.914062 0.765625 -6.335938 0.765625 -7.921875 C 0.765625 -9.503906 1.140625 -10.921875 1.890625 -12.171875 C 2.648438 -13.421875 3.6875 -14.394531 5 -15.09375 C 6.320312 -15.800781 7.816406 -16.15625 9.484375 -16.15625 C 10.929688 -16.15625 12.234375 -15.894531 13.390625 -15.375 C 14.554688 -14.863281 15.523438 -14.128906 16.296875 -13.171875 L 13.4375 -10.59375 C 12.414062 -11.820312 11.171875 -12.4375 9.703125 -12.4375 C 8.847656 -12.4375 8.082031 -12.25 7.40625 -11.875 C 6.738281 -11.5 6.21875 -10.96875 5.84375 -10.28125 C 5.476562 -9.59375 5.296875 -8.804688 5.296875 -7.921875 C 5.296875 -7.023438 5.476562 -6.234375 5.84375 -5.546875 C 6.21875 -4.867188 6.738281 -4.335938 7.40625 -3.953125 C 8.082031 -3.578125 8.847656 -3.390625 9.703125 -3.390625 C 11.171875 -3.390625 12.414062 -4.007812 13.4375 -5.25 L 16.296875 -2.671875 C 15.523438 -1.703125 14.554688 -0.960938 13.390625 -0.453125 C 12.234375 0.0546875 10.929688 0.3125 9.484375 0.3125 Z M 9.484375 0.3125" transform="translate(65.036 255.807)"/></g></g></g><g fill="#23242C"><g><g><path d="M 10.0625 -5.671875 L 10.0625 0 L 5.59375 0 L 5.59375 -5.75 L -0.453125 -15.84375 L 4.28125 -15.84375 L 8.03125 -9.546875 L 11.78125 -15.84375 L 16.125 -15.84375 Z M 10.0625 -5.671875" transform="translate(89.011 255.807)"/></g></g></g><g fill="#23242C"><g><g><path d="M 13.75 -8.265625 C 14.65625 -7.941406 15.363281 -7.441406 15.875 -6.765625 C 16.394531 -6.097656 16.65625 -5.289062 16.65625 -4.34375 C 16.65625 -2.957031 16.09375 -1.882812 14.96875 -1.125 C 13.851562 -0.375 12.242188 0 10.140625 0 L 1.578125 0 L 1.578125 -15.84375 L 9.6875 -15.84375 C 11.707031 -15.84375 13.242188 -15.46875 14.296875 -14.71875 C 15.347656 -13.96875 15.875 -12.960938 15.875 -11.703125 C 15.875 -10.941406 15.691406 -10.265625 15.328125 -9.671875 C 14.960938 -9.078125 14.4375 -8.609375 13.75 -8.265625 Z M 6.015625 -12.609375 L 6.015625 -9.546875 L 9.09375 -9.546875 C 10.601562 -9.546875 11.359375 -10.0625 11.359375 -11.09375 C 11.359375 -12.101562 10.601562 -12.609375 9.09375 -12.609375 Z M 9.78125 -3.234375 C 11.34375 -3.234375 12.125 -3.769531 12.125 -4.84375 C 12.125 -5.914062 11.34375 -6.453125 9.78125 -6.453125 L 6.015625 -6.453125 L 6.015625 -3.234375 Z M 9.78125 -3.234375" transform="translate(111.97 255.807)"/></g></g></g><g fill="#23242C"><g><g><path d="M 14.296875 -3.46875 L 14.296875 0 L 1.578125 0 L 1.578125 -15.84375 L 14 -15.84375 L 14 -12.375 L 6.015625 -12.375 L 6.015625 -9.703125 L 13.046875 -9.703125 L 13.046875 -6.359375 L 6.015625 -6.359375 L 6.015625 -3.46875 Z M 14.296875 -3.46875" transform="translate(136.646 255.807)"/></g></g></g><g fill="#23242C"><g><g><path d="M 8.5 -4.203125 L 6.0625 -4.203125 L 6.0625 0 L 1.578125 0 L 1.578125 -15.84375 L 8.828125 -15.84375 C 10.253906 -15.84375 11.492188 -15.601562 12.546875 -15.125 C 13.609375 -14.644531 14.425781 -13.960938 15 -13.078125 C 15.570312 -12.203125 15.859375 -11.171875 15.859375 -9.984375 C 15.859375 -8.835938 15.585938 -7.835938 15.046875 -6.984375 C 14.515625 -6.128906 13.753906 -5.460938 12.765625 -4.984375 L 16.171875 0 L 11.375 0 Z M 11.328125 -9.984375 C 11.328125 -10.722656 11.09375 -11.296875 10.625 -11.703125 C 10.164062 -12.109375 9.472656 -12.3125 8.546875 -12.3125 L 6.0625 -12.3125 L 6.0625 -7.671875 L 8.546875 -7.671875 C 9.472656 -7.671875 10.164062 -7.867188 10.625 -8.265625 C 11.09375 -8.671875 11.328125 -9.242188 11.328125 -9.984375 Z M 11.328125 -9.984375" transform="translate(159.129 255.807)"/></g></g></g><g fill="#23242C"><g><g><path d="M 16.65625 -15.84375 L 16.65625 0 L 12.171875 0 L 12.171875 -6.171875 L 6.0625 -6.171875 L 6.0625 0 L 1.578125 0 L 1.578125 -15.84375 L 6.0625 -15.84375 L 6.0625 -9.890625 L 12.171875 -9.890625 L 12.171875 -15.84375 Z M 16.65625 -15.84375" transform="translate(220.991 255.807)"/></g></g></g><g fill="#23242C"><g><g><path d="M 7.6875 -5.75 L 6.015625 -3.953125 L 6.015625 0 L 1.578125 0 L 1.578125 -15.84375 L 6.015625 -15.84375 L 6.015625 -9.25 L 12.15625 -15.84375 L 17.078125 -15.84375 L 10.609375 -8.828125 L 17.421875 0 L 12.21875 0 Z M 7.6875 -5.75" transform="translate(292.964 255.807)"/></g></g></g><g fill="#23242C"><g><g><path d="M 2.546875 -6.3125 L 0.046875 -6.3125 L 0.046875 -8.140625 L 7.328125 -8.140625 L 7.328125 -6.3125 L 4.84375 -6.3125 L 4.84375 0 L 2.546875 0 Z M 2.546875 -6.3125" transform="translate(110.964 278.81)"/></g></g></g><g fill="#23242C"><g><g><path d="M 7.34375 -1.78125 L 7.34375 0 L 0.8125 0 L 0.8125 -8.140625 L 7.203125 -8.140625 L 7.203125 -6.359375 L 3.09375 -6.359375 L 3.09375 -4.984375 L 6.703125 -4.984375 L 6.703125 -3.265625 L 3.09375 -3.265625 L 3.09375 -1.78125 Z M 7.34375 -1.78125" transform="translate(125.768 278.81)"/></g></g></g><g fill="#23242C"><g><g><path d="M 4.875 0.15625 C 4.019531 0.15625 3.253906 -0.0195312 2.578125 -0.375 C 1.898438 -0.738281 1.363281 -1.238281 0.96875 -1.875 C 0.582031 -2.519531 0.390625 -3.25 0.390625 -4.0625 C 0.390625 -4.882812 0.582031 -5.613281 0.96875 -6.25 C 1.363281 -6.894531 1.898438 -7.394531 2.578125 -7.75 C 3.253906 -8.113281 4.019531 -8.296875 4.875 -8.296875 C 5.613281 -8.296875 6.28125 -8.164062 6.875 -7.90625 C 7.476562 -7.644531 7.976562 -7.265625 8.375 -6.765625 L 6.90625 -5.4375 C 6.375 -6.070312 5.734375 -6.390625 4.984375 -6.390625 C 4.546875 -6.390625 4.15625 -6.289062 3.8125 -6.09375 C 3.46875 -5.90625 3.195312 -5.632812 3 -5.28125 C 2.8125 -4.925781 2.71875 -4.519531 2.71875 -4.0625 C 2.71875 -3.613281 2.8125 -3.210938 3 -2.859375 C 3.195312 -2.503906 3.46875 -2.226562 3.8125 -2.03125 C 4.15625 -1.84375 4.546875 -1.75 4.984375 -1.75 C 5.734375 -1.75 6.375 -2.066406 6.90625 -2.703125 L 8.375 -1.375 C 7.976562 -0.875 7.476562 -0.492188 6.875 -0.234375 C 6.28125 0.0234375 5.613281 0.15625 4.875 0.15625 Z M 4.875 0.15625" transform="translate(141.001 278.81)"/></g></g></g><g fill="#23242C"><g><g><path d="M 8.5625 -8.140625 L 8.5625 0 L 6.25 0 L 6.25 -3.171875 L 3.109375 -3.171875 L 3.109375 0 L 0.8125 0 L 0.8125 -8.140625 L 3.109375 -8.140625 L 3.109375 -5.078125 L 6.25 -5.078125 L 6.25 -8.140625 Z M 8.5625 -8.140625" transform="translate(157.003 278.81)"/></g></g></g><g fill="#23242C"><g><g><path d="M 8.5625 -8.140625 L 8.5625 0 L 6.65625 0 L 3.0625 -4.34375 L 3.0625 0 L 0.8125 0 L 0.8125 -8.140625 L 2.703125 -8.140625 L 6.296875 -3.796875 L 6.296875 -8.140625 Z M 8.5625 -8.140625" transform="translate(173.794 278.81)"/></g></g></g><g fill="#23242C"><g><g><path d="M 4.921875 0.15625 C 4.054688 0.15625 3.28125 -0.0234375 2.59375 -0.390625 C 1.90625 -0.753906 1.363281 -1.253906 0.96875 -1.890625 C 0.582031 -2.535156 0.390625 -3.257812 0.390625 -4.0625 C 0.390625 -4.875 0.582031 -5.597656 0.96875 -6.234375 C 1.363281 -6.878906 1.90625 -7.382812 2.59375 -7.75 C 3.28125 -8.113281 4.054688 -8.296875 4.921875 -8.296875 C 5.773438 -8.296875 6.546875 -8.113281 7.234375 -7.75 C 7.921875 -7.382812 8.457031 -6.878906 8.84375 -6.234375 C 9.238281 -5.597656 9.4375 -4.875 9.4375 -4.0625 C 9.4375 -3.257812 9.238281 -2.535156 8.84375 -1.890625 C 8.457031 -1.253906 7.921875 -0.753906 7.234375 -0.390625 C 6.546875 -0.0234375 5.773438 0.15625 4.921875 0.15625 Z M 4.921875 -1.75 C 5.328125 -1.75 5.695312 -1.84375 6.03125 -2.03125 C 6.363281 -2.226562 6.625 -2.503906 6.8125 -2.859375 C 7.007812 -3.210938 7.109375 -3.613281 7.109375 -4.0625 C 7.109375 -4.519531 7.007812 -4.925781 6.8125 -5.28125 C 6.625 -5.632812 6.363281 -5.90625 6.03125 -6.09375 C 5.695312 -6.289062 5.328125 -6.390625 4.921875 -6.390625 C 4.503906 -6.390625 4.128906 -6.289062 3.796875 -6.09375 C 3.460938 -5.90625 3.195312 -5.632812 3 -5.28125 C 2.8125 -4.925781 2.71875 -4.519531 2.71875 -4.0625 C 2.71875 -3.613281 2.8125 -3.210938 3 -2.859375 C 3.195312 -2.503906 3.460938 -2.226562 3.796875 -2.03125 C 4.128906 -1.84375 4.503906 -1.75 4.921875 -1.75 Z M 4.921875 -1.75" transform="translate(190.586 278.81)"/></g></g></g><g fill="#23242C"><g><g><path d="M 0.8125 -8.140625 L 3.109375 -8.140625 L 3.109375 -1.828125 L 7 -1.828125 L 7 0 L 0.8125 0 Z M 0.8125 -8.140625" transform="translate(207.843 278.81)"/></g></g></g><g fill="#23242C"><g><g><path d="M 6.265625 -4.25 L 8.296875 -4.25 L 8.296875 -0.875 C 7.835938 -0.539062 7.304688 -0.285156 6.703125 -0.109375 C 6.097656 0.0664062 5.488281 0.15625 4.875 0.15625 C 4.03125 0.15625 3.265625 -0.0195312 2.578125 -0.375 C 1.898438 -0.738281 1.363281 -1.238281 0.96875 -1.875 C 0.582031 -2.519531 0.390625 -3.25 0.390625 -4.0625 C 0.390625 -4.882812 0.582031 -5.613281 0.96875 -6.25 C 1.363281 -6.894531 1.90625 -7.394531 2.59375 -7.75 C 3.28125 -8.113281 4.054688 -8.296875 4.921875 -8.296875 C 5.679688 -8.296875 6.363281 -8.164062 6.96875 -7.90625 C 7.570312 -7.65625 8.078125 -7.289062 8.484375 -6.8125 L 7.015625 -5.484375 C 6.472656 -6.085938 5.816406 -6.390625 5.046875 -6.390625 C 4.347656 -6.390625 3.785156 -6.175781 3.359375 -5.75 C 2.929688 -5.332031 2.71875 -4.769531 2.71875 -4.0625 C 2.71875 -3.613281 2.8125 -3.210938 3 -2.859375 C 3.195312 -2.515625 3.46875 -2.242188 3.8125 -2.046875 C 4.164062 -1.847656 4.566406 -1.75 5.015625 -1.75 C 5.460938 -1.75 5.878906 -1.835938 6.265625 -2.015625 Z M 6.265625 -4.25" transform="translate(239.612 278.81)"/></g></g></g><g fill="#23242C"><g><g><path d="M 5.171875 -2.921875 L 5.171875 0 L 2.875 0 L 2.875 -2.953125 L -0.234375 -8.140625 L 2.203125 -8.140625 L 4.125 -4.90625 L 6.0625 -8.140625 L 8.28125 -8.140625 Z M 5.171875 -2.921875" transform="translate(255.986 278.81)"/></g></g></g></svg>